#!OML:ASF F:\VICON\USERDATA\INSTALL\rory3\rory3.ASF
:FULLY-SPECIFIED
:DEGREES
234
root 3.88702 17.9126 23.0474 -3.14688 -1.67251 -4.06898
lowerback 11.0146 -1.0201 1.7606
upperback 0.0657436 -0.940133 3.08545
thorax -6.09595 -0.467611 2.40166
lowerneck -17.7538 -2.24675 -1.97248
upperneck 17.6021 -2.41269 -0.694705
head 8.42228 -1.34858 -0.207749
rclavicle 2.42145e-014 -4.49253e-014
rhumerus -36.5393 -26.2002 -72.3041
rradius 21.6668
rwrist 8.4516
rhand -19.081 23.0134
rfingers 7.12502
rthumb 7.22694 -6.84317
lclavicle 2.42145e-014 -4.49253e-014
lhumerus -30.4293 -1.14344 83.0997
lradius 32.2319
lwrist 8.50824
lhand -24.6953 23.3936
lfingers 7.12502
lthumb 1.80586 53.3657
rfemur -21.6335 5.92708 27.8681
rtibia 30.9143
rfoot -4.0651 -3.41016
rtoes 11.7194
lfemur 2.37876 -2.40191 -16.8855
ltibia 56.0445
lfoot 21.305 -18.9379
ltoes 4.55787
235
root 3.8657 17.9333 23.2386 -3.24676 -1.7008 -4.36705
lowerback 11.0127 -0.943388 2.00061
upperback 0.184156 -0.807996 3.14784
thorax -5.97599 -0.409094 2.30804
lowerneck -17.7402 -2.26937 -2.02057
upperneck 17.4327 -2.48018 -0.461702
head 8.3666 -1.35808 -0.128411
rclavicle 1.3741e-014 -4.25399e-014
rhumerus -36.0895 -25.7232 -72.8314
rradius 21.8451
rwrist 8.03974
rhand -18.6717 23.4572
rfingers 7.12502
rthumb 7.62205 -6.38549
lclavicle 1.3741e-014 -4.25399e-014
lhumerus -30.7107 -1.41672 83.3778
lradius 32.6412
lwrist 8.27501
lhand -25.0563 23.0233
lfingers 7.12502
lthumb 1.45723 52.9981
rfemur -20.7531 6.1395 28.3498
rtibia 30.7943
rfoot -4.40433 -3.62669
rtoes 11.7046
lfemur 1.02081 -2.21011 -16.3441
ltibia 58.1147
lfoot 20.9963 -18.9619
ltoes 6.09535
236
root 3.85375 17.9544 23.4312 -3.36942 -1.68368 -4.53879
lowerback 11.0664 -0.895648 2.26535
upperback 0.210801 -0.711085 3.11854
thorax -5.98421 -0.369428 2.11298
lowerneck -17.4331 -2.35797 -2.09763
upperneck 17.2675 -2.6294 -0.270506
head 8.26157 -1.41343 -0.0650769
rclavicle 1.9133e-015 -3.57812e-015
rhumerus -35.8212 -25.3298 -73.2379
rradius 21.9032
rwrist 7.84042
rhand -17.652 26.0433
rfingers 7.12502
rthumb 8.60619 -3.76125
lclavicle 1.9133e-015 -3.57812e-015
lhumerus -30.9346 -1.652 83.5493
lradius 32.7924
lwrist 7.60307
lhand -23.4414 27.879
lfingers 7.12502
lthumb 3.01687 57.8374
rfemur -19.8823 6.19217 28.6664
rtibia 30.7397
rfoot -4.91972 -3.79545
rtoes 11.7365
lfemur -0.302539 -2.03581 -16.0146
ltibia 60.0328
lfoot 19.6191 -18.7653
ltoes 5.6158
237
root 3.84234 17.9792 23.6214 -3.42566 -1.66091 -4.76324
lowerback 11.1702 -0.89891 2.51728
upperback 0.129475 -0.673204 3.14502
thorax -6.13242 -0.357966 1.99699
lowerneck -16.9741 -2.38482 -2.17295
upperneck 17.1018 -2.6828 -0.154992
head 8.12834 -1.43207 -0.0138467
rclavicle -2.23633e-016 -1.78906e-014
rhumerus -35.5752 -24.8939 -73.5233
rradius 21.8654
rwrist 8.06203
rhand -17.1294 28.5789
rfingers 7.12502
rthumb 9.11047 -1.20431
lclavicle -2.23633e-016 -1.78906e-014
lhumerus -31.1252 -1.5855 83.687
lradius 32.4426
lwrist 6.96117
lhand -15.6205 39.4108
lfingers 7.12502
lthumb 10.5662 69.1252
rfemur -19.1126 6.10526 29.0337
rtibia 30.6643
rfoot -5.50625 -3.77427
rtoes 12.0826
lfemur -1.75748 -1.84501 -15.6334
ltibia 61.8721
lfoot 17.4834 -17.6928
ltoes 7.07586
238
root 3.83007 18.0062 23.8096 -3.53697 -1.65722 -4.67655
lowerback 11.1842 -0.816564 2.52949
upperback 0.176986 -0.571111 3.01887
thorax -6.0927 -0.309908 1.83962
lowerneck -16.7817 -2.42745 -2.12802
upperneck 17.026 -2.76565 -0.116925
head 8.06968 -1.46459 -0.0154144
rclavicle 6.53505e-015 -9.93923e-015
rhumerus -35.0965 -24.5473 -73.9544
rradius 21.9619
rwrist 8.3753
rhand -17.1178 25.9508
rfingers 7.12502
rthumb 9.12164 -3.83196
lclavicle 6.53505e-015 -9.93923e-015
lhumerus -31.1742 -1.85971 83.8323
lradius 32.051
lwrist 6.83024
lhand -24.2806 26.8938
lfingers 7.12502
lthumb 2.20633 56.8621
rfemur -18.1957 5.97253 29.0673
rtibia 30.5636
rfoot -6.15724 -3.71437
rtoes 12.3492
lfemur -3.12513 -1.64859 -15.6364
ltibia 63.5426
lfoot 15.1343 -16.7417
ltoes 5.94244
239
root 3.81665 18.0257 23.9963 -3.58776 -1.71767 -4.6739
lowerback 11.0375 -0.693737 2.5644
upperback 0.301546 -0.420449 2.93291
thorax -5.881 -0.237336 1.69977
lowerneck -16.8376 -2.45327 -2.07227
upperneck 17.0777 -2.83111 -0.0321755
head 8.09774 -1.48316 -0.00512308
rclavicle 5.01931e-015 2.66371e-014
rhumerus -34.5279 -24.2826 -74.4259
rradius 22.2351
rwrist 8.96639
rhand -15.9676 23.8046
rfingers 7.12502
rthumb 10.2314 -5.9266
lclavicle 5.01931e-015 2.66371e-014
lhumerus -31.4987 -1.88423 83.9281
lradius 32.3642
lwrist 6.4734
lhand -27.2415 20.7661
lfingers 7.12502
lthumb -0.653326 50.7449
rfemur -17.3576 6.04194 29.1987
rtibia 30.3799
rfoot -6.61586 -3.77642
rtoes 11.2165
lfemur -4.58156 -1.32325 -15.5078
ltibia 65.1033
lfoot 12.7877 -16.7316
ltoes 0.871475
240
root 3.80245 18.0371 24.1834 -3.6642 -1.77489 -5.03308
lowerback 10.9559 -0.624302 2.89966
upperback 0.397053 -0.290846 2.98265
thorax -5.73742 -0.181259 1.53976
lowerneck -17.0653 -2.49802 -2.01288
upperneck 17.3622 -2.92194 0.0579303
head 8.23457 -1.5128 -0.000621069
rclavicle 1.54182e-014 -3.73715e-014
rhumerus -33.9516 -23.609 -75.01
rradius 22.3936
rwrist 9.18817
rhand -15.5435 24.1067
rfingers 7.12502
rthumb 10.6405 -5.60387
lclavicle 1.54182e-014 -3.73715e-014
lhumerus -32.0262 -1.47394 83.9592
lradius 32.9145
lwrist 5.7467
lhand -26.1296 22.5158
lfingers 7.12502
lthumb 0.420534 52.4951
rfemur -16.434 6.16756 29.7279
rtibia 30.2738
rfoot -7.12027 -3.93536
rtoes 11.1972
lfemur -5.95334 -0.982059 -14.9262
ltibia 66.5046
lfoot 10.5551 -16.462
ltoes -0.902793
241
root 3.78641 18.0444 24.3638 -3.71951 -1.85729 -5.40222
lowerback 10.983 -0.552316 3.21965
upperback 0.41059 -0.150267 3.04837
thorax -5.74024 -0.119811 1.40686
lowerneck -17.1788 -2.53548 -2.06985
upperneck 17.6058 -2.99498 0.239311
head 8.34128 -1.53213 0.0572829
rclavicle -6.11263e-015 3.97569e-016
rhumerus -33.5635 -22.5266 -75.695
rradius 22.655
rwrist 8.62081
rhand -16.0399 23.4892
rfingers 7.12502
rthumb 10.1617 -6.24543
lclavicle -6.11263e-015 3.97569e-016
lhumerus -32.3274 -1.25484 84.0318
lradius 32.8696
lwrist 5.38077
lhand -25.1761 24.8319
lfingers 7.12502
lthumb 1.3415 54.8074
rfemur -15.538 6.347 30.264
rtibia 30.1641
rfoot -7.64684 -4.08625
rtoes 12.1271
lfemur -7.31282 -0.696044 -14.326
ltibia 67.6755
lfoot 8.40353 -15.6783
ltoes -2.80439
242
root 3.77604 18.0574 24.542 -3.69641 -1.96058 -5.46061
lowerback 10.9243 -0.439609 3.3002
upperback 0.365877 0.00629072 3.01165
thorax -5.75455 -0.0458272 1.29812
lowerneck -16.794 -2.55922 -2.19153
upperneck 17.4923 -3.03581 0.387776
head 8.24 -1.54542 0.127559
rclavicle 1.46107e-014 -7.55382e-015
rhumerus -33.253 -21.6096 -76.278
rradius 22.9216
rwrist 7.96146
rhand -16.1893 22.0266
rfingers 7.12502
rthumb 10.0175 -7.715
lclavicle 1.46107e-014 -7.55382e-015
lhumerus -32.4244 -1.3586 84.1782
lradius 32.3853
lwrist 5.48501
lhand -25.1349 24.8857
lfingers 7.12502
lthumb 1.38127 54.861
rfemur -14.8225 6.42335 30.4458
rtibia 29.9931
rfoot -8.15481 -4.10065
rtoes 12.277
lfemur -8.68347 -0.484876 -14.1915
ltibia 68.5721
lfoot 6.07265 -14.6447
ltoes -6.32952
243
root 3.77343 18.0776 24.7312 -3.69718 -1.99439 -5.21368
lowerback 10.6909 -0.318802 3.19316
upperback 0.459211 0.127881 2.85922
thorax -5.52414 0.0170545 1.17567
lowerneck -16.5154 -2.62799 -2.2852
upperneck 17.2521 -3.14407 0.546179
head 8.1159 -1.58738 0.187932
rclavicle -2.47238e-015 -1.31198e-014
rhumerus -32.662 -21.3177 -76.6768
rradius 23.0264
rwrist 7.74153
rhand -15.9139 21.593
rfingers 7.12502
rthumb 10.2832 -8.13561
lclavicle -2.47238e-015 -1.31198e-014
lhumerus -32.4274 -1.40428 84.314
lradius 32.1501
lwrist 5.47942
lhand -25.9192 23.0861
lfingers 7.12502
lthumb 0.623737 53.065
rfemur -13.9955 6.2346 30.2621
rtibia 29.7598
rfoot -8.74468 -3.96168
rtoes 11.3109
lfemur -9.82774 -0.413061 -14.5443
ltibia 69.2002
lfoot 3.91694 -13.4938
ltoes -7.7595
244
root 3.75976 18.0872 24.9167 -3.74785 -2.17137 -5.38696
lowerback 10.5805 -0.218895 3.30069
upperback 0.554899 0.264638 2.88235
thorax -5.36075 0.083766 1.11686
lowerneck -16.6866 -2.64576 -2.13016
upperneck 17.4093 -3.18248 0.436732
head 8.19469 -1.60584 0.118282
rclavicle 1.43001e-014 -5.96354e-015
rhumerus -32.064 -20.8009 -77.1006
rradius 22.9927
rwrist 7.309
rhand -16.1405 22.323
rfingers 7.12502
rthumb 10.0646 -7.41631
lclavicle 1.43001e-014 -5.96354e-015
lhumerus -32.6645 -1.31106 84.3782
lradius 32.2459
lwrist 5.45444
lhand -27.0778 21.0616
lfingers 7.12502
lthumb -0.495277 51.0407
rfemur -13.0006 6.23644 30.6201
rtibia 29.3669
rfoot -9.13558 -4.04124
rtoes 10.651
lfemur -10.9922 -0.0782664 -14.2371
ltibia 69.7545
lfoot 2.67635 -12.7757
ltoes -6.55285
245
root 3.73814 18.0965 25.0885 -3.77849 -2.40193 -5.83464
lowerback 10.7446 -0.087776 3.59172
upperback 0.50452 0.492233 2.9971
thorax -5.50397 0.188233 1.04052
lowerneck -16.9074 -2.66803 -1.95432
upperneck 17.8187 -3.21757 0.248821
head 8.36555 -1.62935 0.0164982
rclavicle -3.70858e-015 -2.46493e-014
rhumerus -31.7591 -20.2412 -77.4035
rradius 23.0137
rwrist 7.04908
rhand -16.7557 22.6063
rfingers 7.12502
rthumb 9.47104 -7.16085
lclavicle -3.70858e-015 -2.46493e-014
lhumerus -33.0475 -1.20606 84.454
lradius 32.2766
lwrist 5.4704
lhand -26.6105 22.3865
lfingers 7.12502
lthumb -0.0439381 52.3663
rfemur -12.0424 6.46843 31.3211
rtibia 28.8666
rfoot -9.51833 -4.3034
rtoes 11.2113
lfemur -12.5912 0.422669 -13.5485
ltibia 70.2301
lfoot 2.50896 -12.5802
ltoes -4.32928
